:SAMPLES-PER-SECOND 30
:FULLY-SPECIFIED
:DEGREES
78
root  28.5915 38.8179 -11.4473 -1.74366 -74.6134 -3.08669
RightUpLeg  -5.17485 -12.1766 5.48711
RightLeg  28.4304 -0.299145 -0.274316
RightFoot  -16.6452 -0.501021 -8.23312
RightToes  1.16414e-010 0 -3.6325e-017
Spine  13.5822 -1.1298 0.0600329
Spine1  6.22815 -1.19296 2.19717
HEad  -3.01274 35.4752 -9.74975
LeftShoulder1  9.17801 -12.5053 -50.0455
LeftArm  -50.4875 7.30443 -17.8653
LeftForeArm  -20.0999 -49.8332 -14.6717
LeftHand  -0.244104 0.0205437 5.32207
RightShoulder  4.57712 7.67145 34.9954
RightArm  -10.0476 -14.8199 39.4715
RightForeArm  -5.34185 36.2082 8.52558
RightHand  -2.79835 7.78835 -24.5998
LeftUpLeg  -27.4672 -5.83282 1.52683
LeftLeg  62.237 4.96155 10.8075
LeftFoot  0.279229 0.107971 -1.07939
LeftToes  -6.45774e-011 3.08606e-011 -5.1752e-012
79
root  27.1155 39.7872 -11.333 -6.99099 -77.0784 4.6824
RightUpLeg  -1.62275 -12.3408 2.3769
RightLeg  21.6239 1.58353 1.61976
RightFoot  -13.1213 -0.16582 -4.55361
RightToes  1.16414e-010 0 -3.6325e-017
Spine  11.1827 0.0938599 -1.57626
Spine1  5.37732 0.111441 0.412167
HEad  -2.86273 35.8886 -12.9188
LeftShoulder1  8.95156 -12.2118 -49.7233
LeftArm  -51.4604 8.00535 -16.6754
LeftForeArm  -19.1332 -50.4719 -14.9496
LeftHand  -0.244104 0.0205437 5.32207
RightShoulder  4.60098 7.67004 35.2095
RightArm  -7.94055 -16.0047 39.148
RightForeArm  -4.38667 36.8281 8.65798
RightHand  -2.63639 7.35521 -23.9919
LeftUpLeg  -28.2653 -2.9284 -0.996216
LeftLeg  51.0104 5.62069 7.88061
LeftFoot  -0.493055 0.258204 -2.677
LeftToes  -6.45774e-011 3.08606e-011 -5.1752e-012
80
root  25.7491 40.3538 -11.173 -12.5068 -79.9643 12.1178
RightUpLeg  0.961694 -11.728 -0.362134
RightLeg  18.0862 0.163856 2.16761
RightFoot  -10.2848 -0.0631621 -0.164598
RightToes  1.16414e-010 0 -3.6325e-017
Spine  9.52406 1.10137 -1.38842
Spine1  4.45444 1.59741 -2.16541
HEad  -3.86906 36.3324 -16.99
LeftShoulder1  8.59812 -11.7979 -49.0467
LeftArm  -52.9803 8.12718 -14.644
LeftForeArm  -17.5616 -51.4517 -15.3877
LeftHand  -0.244104 0.0205437 5.32207
RightShoulder  4.69691 7.92886 35.1202
RightArm  -6.86166 -16.9751 38.5985
RightForeArm  -4.12796 37.8676 8.96317
RightHand  -2.62115 7.30993 -23.9373
LeftUpLeg  -28.7717 0.756647 -3.0776
LeftLeg  39.9818 4.72091 4.61418
LeftFoot  -0.729407 0.307846 -3.2681
LeftToes  -6.45774e-011 3.08606e-011 -5.1752e-012
81
root  24.4284 40.4972 -10.9977 -20.5464 -82.5364 20.781
RightUpLeg  4.15469 -12.5963 -3.03127
RightLeg  16.2509 -0.251821 2.86477
RightFoot  -9.01089 -0.0904865 1.58584
RightToes  1.16414e-010 0 -3.6325e-017
Spine  9.08615 1.84623 -0.333815
Spine1  4.04459 2.91872 -4.77248
HEad  -6.21233 36.4091 -21.1099
LeftShoulder1  7.95432 -11.2333 -47.0803
LeftArm  -54.8574 7.67942 -13.0514
LeftForeArm  -15.0265 -52.8576 -16.0341
LeftHand  -0.244104 0.0205437 5.32207
RightShoulder  4.84651 8.43809 34.6307
RightArm  -6.23393 -17.3467 38.0435
RightForeArm  -4.91275 39.1041 9.40295
RightHand  -2.79859 7.76662 -24.6405
LeftUpLeg  -28.2771 3.82668 -4.80747
LeftLeg  29.5895 3.19773 2.29368
LeftFoot  -0.860439 0.340911 -3.65807
LeftToes  -6.45774e-011 3.08606e-011 -5.1752e-012
82
root  23.0735 40.2951 -10.8351 -30.1884 -84.4111 30.282
RightUpLeg  8.09425 -12.6918 -5.11782
RightLeg  14.2476 0.292342 4.30154
RightFoot  -10.0463 -0.0814343 1.04724
RightToes  1.16414e-010 0 -3.6325e-017
Spine  9.25057 2.39101 0.644812
Spine1  3.94787 3.92388 -6.68749
HEad  -8.54665 35.9741 -24.1209
LeftShoulder1  7.15588 -10.605 -44.1466
LeftArm  -56.8393 6.8521 -12.0082
LeftForeArm  -12.0864 -54.3292 -16.7372
LeftHand  -0.244104 0.0205437 5.32207
RightShoulder  4.90939 8.82845 33.8614
RightArm  -5.52774 -17.0767 37.4212
RightForeArm  -5.75098 40.0241 9.75572
RightHand  -2.98114 8.18735 -25.4078
LeftUpLeg  -27.5533 6.67646 -6.2861
LeftLeg  20.8057 2.00812 1.17988
LeftFoot  -0.390179 0.397969 -4.12666
LeftToes  -6.45774e-011 3.08606e-011 -5.1752e-012
83
root  21.6663 39.8608 -10.6841 -36.8898 -85.647 36.8001
RightUpLeg  11.6323 -12.1478 -5.95941
RightLeg  12.6847 0.93149 5.35682
RightFoot  -12.7681 -0.0744508 0.830334
RightToes  1.16414e-010 0 -3.6325e-017
Spine  9.39121 2.72558 1.41166
Spine1  3.87509 4.60671 -7.95645
HEad  -10.1887 35.294 -25.8733
LeftShoulder1  6.5473 -10.0802 -41.8252
LeftArm  -58.6927 5.46167 -10.0787
LeftForeArm  -9.60003 -55.2112 -17.1301
LeftHand  -0.244104 0.0205437 5.32207
RightShoulder  4.81001 8.77797 33.2202
RightArm  -5.03455 -16.1644 36.7446
RightForeArm  -5.56701 40.0201 9.74445
RightHand  -2.99853 8.17397 -25.5704
LeftUpLeg  -27.6031 9.37376 -7.52195
LeftLeg  15.2044 2.28983 0.817969
LeftFoot  -0.185225 0.42894 -4.385
LeftToes  -6.45774e-011 3.08606e-011 -5.1752e-012
